<svg xmlns="http://www.w3.org/2000/svg" viewBox="0 0 335.314 248.692">
  <defs>
    <style>
      .cls-1 {
        fill: #fff;
      }
    </style>
  </defs>
  <g id="donut-with-sprinkles" transform="translate(0 -43.311)">
    <g id="Group_9" data-name="Group 9">
      <path id="Path_1" data-name="Path 1" class="cls-1" d="M284.536,70.2c-31.343-17.338-72.852-26.887-116.88-26.887S82.119,52.86,50.777,70.2C18.033,88.312,0,112.891,0,139.409c0,.012,0,.022,0,.033s0,.027,0,.042L.569,195.9C.4,212.837,7.842,229.412,22.1,243.841,51.469,273.548,107.242,292,167.658,292c44.028,0,85.536-9.549,116.879-26.887,32.744-18.114,50.777-42.694,50.777-69.211v-56.5C335.314,112.891,317.281,88.312,284.536,70.2ZM58.039,83.323c29.156-16.129,68.086-25.012,109.617-25.012s80.461,8.883,109.618,25.013c27.755,15.353,43.04,35.271,43.04,56.085v29.174c-.807,11.729-1.542,21.048-15.515,31.44-15.324,9.083-25.153,6.272-37.574,2.724-10.619-3.036-22.647-6.472-37.975-1.311-15.917,3.988-23.686,13.391-30.548,21.692-7.689,9.3-13.771,16.663-31.057,17.472-17.287-.811-23.369-8.171-31.058-17.475-6.861-8.3-14.632-17.705-30.549-21.695-15.325-5.161-27.351-1.726-37.97,1.309-12.422,3.55-22.248,6.355-37.568-2.724-12.491-9.294-14.313-17.724-15.162-26.956L15,139.385C15.012,118.581,30.3,98.67,58.039,83.323ZM277.275,251.991C248.119,268.121,209.189,277,167.658,277,111.106,277,59.421,260.256,32.773,233.3,25,225.439,19.857,217.2,17.349,208.68a29.12,29.12,0,0,0,5.133,4.019c21.076,12.645,36.289,8.3,49.708,4.464,9.808-2.8,18.277-5.223,29.3-1.436.216.074.436.139.658.193,11.308,2.762,16.67,9.249,22.878,16.762,8.484,10.267,18.1,21.9,42.305,22.92.1.005.21.007.314.007s.209,0,.314-.007c24.2-1.014,33.819-12.65,42.3-22.916,6.209-7.512,11.57-14,22.877-16.76.223-.055.442-.119.659-.193,11.021-3.79,19.494-1.366,29.3,1.437,13.423,3.837,28.636,8.183,49.715-4.463a31.526,31.526,0,0,0,5.7-4.523C313.735,224.456,299.513,239.689,277.275,251.991Z"/>
      <path id="Path_2" data-name="Path 2" class="cls-1" d="M242.172,138.206c0-10.611-8.62-20.007-24.271-26.454-13.543-5.579-31.387-8.651-50.244-8.651s-36.7,3.072-50.242,8.651c-15.651,6.447-24.271,15.843-24.271,26.454s8.62,20.007,24.271,26.455c13.542,5.578,31.385,8.65,50.242,8.65s36.7-3.072,50.244-8.65C233.552,158.212,242.172,148.818,242.172,138.206ZM167.656,118.1c35.778,0,59.516,12.1,59.516,20.105,0,2.191-2.163,5.543-7.777,8.985-13.573-5.919-32.278-9.3-51.738-9.3s-38.163,3.381-51.738,9.3c-5.612-3.441-7.775-6.793-7.775-8.984C108.143,130.2,131.879,118.1,167.656,118.1Zm-28.25,37.506a148.3,148.3,0,0,1,56.5,0,148.9,148.9,0,0,1-56.5,0Z"/>
      <path id="Path_3" data-name="Path 3" class="cls-1" d="M93.162,104.5a7.474,7.474,0,0,0,3.8-1.038l21.076-12.411a7.5,7.5,0,0,0-7.612-12.926L89.35,90.533A7.5,7.5,0,0,0,93.162,104.5Z"/>
      <path id="Path_4" data-name="Path 4" class="cls-1" d="M176.768,185.015,153.649,193a7.5,7.5,0,1,0,4.9,14.178l23.119-7.983a7.5,7.5,0,1,0-4.9-14.178Z"/>
      <path id="Path_5" data-name="Path 5" class="cls-1" d="M150.556,82.928l23.083,8.092A7.5,7.5,0,1,0,178.6,76.863l-23.083-8.092a7.5,7.5,0,0,0-4.963,14.157Z"/>
      <path id="Path_6" data-name="Path 6" class="cls-1" d="M123.44,177.651l-23.083-8.092a7.5,7.5,0,1,0-4.963,14.156l23.083,8.092a7.5,7.5,0,0,0,4.963-14.156Z"/>
      <path id="Path_7" data-name="Path 7" class="cls-1" d="M263.82,150.81a7.5,7.5,0,1,0,4.022,14.451l23.564-6.558a7.5,7.5,0,0,0-4.021-14.451Z"/>
      <path id="Path_8" data-name="Path 8" class="cls-1" d="M42.652,170.114a7.469,7.469,0,0,0,3.435-.838L67.82,158.054a7.5,7.5,0,0,0-6.88-13.328L39.207,155.948a7.5,7.5,0,0,0,3.445,14.166Z"/>
      <path id="Path_9" data-name="Path 9" class="cls-1" d="M46.2,123.239c.1,0,.195,0,.294-.006l24.442-.941a7.5,7.5,0,0,0-.578-14.988l-24.442.941a7.5,7.5,0,0,0,.284,14.994Z"/>
      <path id="Path_10" data-name="Path 10" class="cls-1" d="M256.06,119.909l23.867,5.355a7.5,7.5,0,1,0,3.283-14.636l-23.867-5.355a7.5,7.5,0,1,0-3.283,14.636Z"/>
      <path id="Path_11" data-name="Path 11" class="cls-1" d="M217.933,173.188a7.5,7.5,0,1,0-.53,14.99l24.445.863c.09,0,.18.005.27.005a7.5,7.5,0,0,0,.26-14.995Z"/>
      <path id="Path_12" data-name="Path 12" class="cls-1" d="M213.258,99.925a7.558,7.558,0,0,0,2.026-.279l23.556-6.6A7.5,7.5,0,0,0,234.8,78.606l-23.557,6.6a7.5,7.5,0,0,0,2.019,14.724Z"/>
    </g>
  </g>
</svg>
